<svg xmlns="http://www.w3.org/2000/svg" viewBox="0 0 64 64" width="31" height="31"><linearGradient id="a" x1="10" x2="10" y1="19" y2="40.775" gradientUnits="userSpaceOnUse" spreadMethod="reflect"><stop offset="0" stop-color="#1a6dff"/><stop offset="1" stop-color="#c822ff"/></linearGradient><path fill="url(#a)" d="M10.956 22.773c-.698.989-1.816 1.769-2.935 1.657-.139-1.336.409-2.758 1.049-3.634.698-1.016 1.921-1.742 2.911-1.796.117 1.392-.337 2.757-1.025 3.773"/><linearGradient id="b" x1="8.494" x2="8.494" y1="19.333" y2="40.751" gradientUnits="userSpaceOnUse" spreadMethod="reflect"><stop offset="0" stop-color="#1a6dff"/><stop offset="1" stop-color="#c822ff"/></linearGradient><path fill="url(#b)" d="M11.934 41c-.809 0-1.374-.229-1.828-.414-.406-.166-.728-.296-1.255-.296-.55 0-.868.13-1.271.295-.411.168-.921.377-1.636.404h-.001c-1.944 0-3.174-1.801-3.834-2.769-1.57-2.275-3.187-6.912-1.195-10.343.985-1.742 2.837-2.873 4.713-2.873.913 0 1.698.321 2.329.58.265.108.627.257.754.26.117-.005.461-.137.713-.234.672-.256 1.592-.61 2.727-.61.445 0 2.737.108 4.184 2.25a1 1 0 01-.224 1.356c-.534.358-1.588 1.226-1.575 2.73.016 2.048 1.75 2.758 1.825 2.788.477.188.742.711.603 1.205-.018.062-.438 1.528-1.403 2.936C14.7 39.526 13.695 41 11.934 41zm-3.083-2.71c.918 0 1.522.246 2.008.443.382.155.657.267 1.075.267.655 0 1.186-.707 1.921-1.785a9.632 9.632 0 00.914-1.694c-.916-.616-2.216-1.89-2.234-4.166-.016-1.723.792-2.921 1.53-3.654A3.235 3.235 0 0012.15 27c-.764 0-1.426.254-2.009.479-.491.188-.955.367-1.43.367-.512 0-.998-.199-1.513-.41-.517-.212-1.052-.431-1.571-.431-1.149 0-2.346.75-2.978 1.867-1.439 2.479-.217 6.295 1.109 8.217.675.989 1.4 1.901 2.149 1.901.323-.013.571-.114.915-.255.484-.198 1.085-.445 2.029-.445z"/><linearGradient id="c" x1="26.5" x2="26.5" y1="20" y2="41" gradientUnits="userSpaceOnUse" spreadMethod="reflect"><stop offset="0" stop-color="#6dc7ff"/><stop offset="1" stop-color="#e6abff"/></linearGradient><path fill="url(#c)" d="M26.958 20H19v21h3v-7h4.849C31.011 34 34 31.095 34 27s-2.934-7-7.042-7zM26 31h-4v-8h4c2.856 0 4.686 1.347 4.686 4S28.87 31 26 31z"/><linearGradient id="d" x1="40.5" x2="40.5" y1="26" y2="41" gradientUnits="userSpaceOnUse" spreadMethod="reflect"><stop offset="0" stop-color="#6dc7ff"/><stop offset="1" stop-color="#e6abff"/></linearGradient><path fill="url(#d)" d="M40.863 26c-3.452 0-6.004 1.903-6.098 4.52h2.928c.241-1.244 1.437-2.059 3.076-2.059 1.987 0 3.111.893 3.111 2.539l.001 1.136-4.065.211c-3.773.22-5.816 1.71-5.816 4.301C34 39.264 36.109 41 39.131 41c2.041 0 3.936-.997 4.794-2.577h.067L44 41h3V30.794C47.001 27.878 44.584 26 40.863 26zm3.008 9.365c0 1.891-1.666 3.238-3.868 3.238-1.732 0-2.835-.803-2.835-2.033 0-1.269 1.061-2.007 3.09-2.124l3.622-.265-.009 1.184z"/><linearGradient id="e" x1="55.5" x2="55.5" y1="26" y2="46" gradientUnits="userSpaceOnUse" spreadMethod="reflect"><stop offset="0" stop-color="#6dc7ff"/><stop offset="1" stop-color="#e6abff"/></linearGradient><path fill="url(#e)" d="M63 26l-5.94 15.33c-1.35 3.51-2.9 4.67-6.2 4.67-.16 0-.55-.01-.86-.03v-2.42c.2.01.42.02.57.02 1.49 0 2.33-.58 2.85-2.08l.31-.89L48 26h3.53l3.97 11.62L59.56 26H63z"/></svg>