<svg xmlns="http://www.w3.org/2000/svg" width="31pt" height="31pt" viewBox="0 0 31 31"><path d="M15.5 31C6.941 31 0 24.059 0 15.5 0 6.941 6.941 0 15.5 0 24.059 0 31 6.941 31 15.5 31 24.059 24.059 31 15.5 31zm0 0" fill="#ccc"/><path d="M10.625 11.523l-1.504 1.68a3.124 3.124 0 00-2.168-.867c-1.07 0-2.016.531-2.582 1.348h-.086l-1.808-1.22a5.402 5.402 0 018.148-.94zm0 0" fill="#ed7899"/><path d="M12.352 15.035v.45a5.374 5.374 0 01-1.688 3.917l-1.691-1.504c.347-.293.629-.652.828-1.066H7.402v-1.797zm0 0" fill="#85cbf8"/><path d="M8.973 17.898a3.15 3.15 0 01-4.953-1.266l-1.875 1.313a5.402 5.402 0 008.52 1.457zm0 0" fill="#72caaf"/><path d="M4.34 13.723l-1.863-1.258a5.42 5.42 0 00-.332 5.48l1.875-1.312a3.167 3.167 0 01.32-2.91zm0 0" fill="#f9e3ae"/><path d="M19.098 9.66v.902a.452.452 0 00.902 0V9.66a.452.452 0 00-.902 0zM17.3 9.21a.453.453 0 00-.453.45v.902a.452.452 0 00.902 0V9.66a.452.452 0 00-.45-.45zm-2.25 0a.45.45 0 00-.45.45v.902a.45.45 0 00.899 0V9.66a.45.45 0 00-.45-.45zm11.246 0a.45.45 0 00-.45.45v.902a.45.45 0 00.9 0V9.66a.45.45 0 00-.45-.45zm2.25 0a.45.45 0 00-.45.45v.902a.45.45 0 00.9 0V9.66a.452.452 0 00-.45-.45zm-4.5 0a.45.45 0 00-.45.45v.902a.45.45 0 00.9 0V9.66a.45.45 0 00-.45-.45zm-2.25 0a.452.452 0 00-.45.45v.902a.45.45 0 10.898 0l.001-.902a.45.45 0 00-.45-.45zm-4.069 2.946c.406.18.718.438.933.77.219.336.324.734.324 1.195 0 .457-.109.856-.324 1.191a2.05 2.05 0 01-.933.778c-.407.18-.883.27-1.43.27h-1.422v1.816h-1.176v-6.29h2.598c.547 0 1.023.09 1.43.27zm-.32 2.89c.265-.214.398-.523.398-.925 0-.398-.133-.707-.399-.926-.265-.215-.652-.32-1.164-.32h-1.37v2.496h1.37c.512 0 .899-.105 1.164-.324zm6.066-1.214c.375.336.562.848.562 1.531v2.813H22.97v-.586c-.137.21-.332.37-.59.484-.254.11-.563.164-.922.164a2.32 2.32 0 01-.95-.183 1.433 1.433 0 01-.624-.512 1.288 1.288 0 01-.223-.742c0-.434.16-.778.485-1.04.32-.257.828-.39 1.52-.39h1.241v-.07c0-.336-.097-.594-.3-.774-.2-.18-.5-.27-.899-.27-.27 0-.535.044-.797.126-.262.086-.48.203-.664.351l-.441-.82c.254-.191.558-.336.91-.437.355-.102.73-.153 1.129-.153.707 0 1.25.168 1.629.508zm-1.032 3.395c.22-.13.375-.313.465-.551v-.559h-1.164c-.648 0-.972.215-.972.64 0 .204.082.364.242.485.164.117.39.18.68.18.28 0 .53-.067.75-.195zm7.454-3.852l-2.254 5.188c-.211.519-.465.886-.766 1.101-.3.211-.664.316-1.09.316a2.25 2.25 0 01-.715-.113 1.619 1.619 0 01-.578-.324l.453-.828c.11.101.235.183.383.242.149.063.297.09.445.09.2 0 .364-.05.493-.152s.246-.274.355-.512l.082-.188-2.101-4.816h1.171l1.516 3.547 1.523-3.547h1.083zm-17.543 1.211h-4.95c-.25 0-.449.2-.449.45v1.796c0 .25.2.45.45.45h1.562a2.722 2.722 0 01-2.012.902 2.703 2.703 0 01-2.7-2.7 2.703 2.703 0 012.7-2.699 2.68 2.68 0 011.86.742.426.426 0 00.328.121.449.449 0 00.316-.148l1.504-1.672a.453.453 0 00-.027-.633 5.852 5.852 0 00-9.828 4.29 5.854 5.854 0 005.847 5.847 5.857 5.857 0 005.848-5.848v-.449c0-.25-.2-.45-.45-.45zm-5.399-4.05c1.106 0 2.164.362 3.027 1.034l-.906 1.008a3.592 3.592 0 00-4.824.535l-1.105-.789a4.953 4.953 0 013.808-1.789zM2.637 13.07l1.11.79a3.55 3.55 0 00-.255 2.593l-1.152.805a4.899 4.899 0 01.297-4.188zm.11 5.004l1.105-.773a3.6 3.6 0 003.101 1.781c.719 0 1.406-.223 1.988-.605l1.032.918a4.913 4.913 0 01-3.02 1.039 4.948 4.948 0 01-4.207-2.36zm7.886.703l-1.004-.894c.23-.25.426-.54.574-.856a.451.451 0 00-.406-.644H7.852v-.899h4.05a4.918 4.918 0 01-1.27 3.293zm0 0" fill="#8d6c9f"/></svg>