<?xml version="1.0" encoding="UTF-8"?>
<svg xmlns="http://www.w3.org/2000/svg" xmlns:xlink="http://www.w3.org/1999/xlink" width="31pt" height="31pt" viewBox="0 0 31 31" version="1.1">
<g id="surface3197522">
<path style=" stroke:none;fill-rule:nonzero;fill:rgb(80%,80%,80%);fill-opacity:1;" d="M 15.5 31 C 6.941406 31 0 24.058594 0 15.5 C 0 6.941406 6.941406 0 15.5 0 C 24.058594 0 31 6.941406 31 15.5 C 31 24.058594 24.058594 31 15.5 31 Z M 15.5 31 "/>
<path style=" stroke:none;fill-rule:nonzero;fill:rgb(92.941176%,47.058824%,60%);fill-opacity:1;" d="M 10.625 11.523438 L 9.121094 13.203125 C 8.558594 12.664062 7.792969 12.335938 6.953125 12.335938 C 5.882812 12.335938 4.9375 12.867188 4.371094 13.683594 L 4.285156 13.683594 L 2.476562 12.464844 C 3.449219 11.03125 5.089844 10.085938 6.953125 10.085938 C 8.371094 10.085938 9.660156 10.632812 10.625 11.523438 Z M 10.625 11.523438 "/>
<path style=" stroke:none;fill-rule:nonzero;fill:rgb(52.156863%,79.607843%,97.254902%);fill-opacity:1;" d="M 12.351562 15.035156 L 12.351562 15.484375 C 12.351562 17.027344 11.703125 18.421875 10.664062 19.402344 L 8.972656 17.898438 C 9.320312 17.605469 9.601562 17.246094 9.800781 16.832031 L 7.402344 16.832031 L 7.402344 15.035156 Z M 12.351562 15.035156 "/>
<path style=" stroke:none;fill-rule:nonzero;fill:rgb(44.705882%,79.215686%,68.627451%);fill-opacity:1;" d="M 8.972656 17.898438 C 8.425781 18.355469 7.722656 18.632812 6.953125 18.632812 C 5.617188 18.632812 4.480469 17.804688 4.019531 16.632812 L 2.144531 17.945312 C 3.039062 19.6875 4.855469 20.882812 6.953125 20.882812 C 8.390625 20.882812 9.699219 20.320312 10.664062 19.402344 Z M 8.972656 17.898438 "/>
<path style=" stroke:none;fill-rule:nonzero;fill:rgb(97.647059%,89.019608%,68.235294%);fill-opacity:1;" d="M 4.339844 13.722656 L 2.476562 12.464844 C 1.894531 13.328125 1.554688 14.367188 1.554688 15.484375 C 1.554688 16.371094 1.769531 17.207031 2.144531 17.945312 L 4.019531 16.632812 C 3.878906 16.277344 3.804688 15.890625 3.804688 15.484375 C 3.804688 14.832031 4.003906 14.226562 4.339844 13.722656 Z M 4.339844 13.722656 "/>
<path style=" stroke:none;fill-rule:nonzero;fill:rgb(55.294118%,42.352941%,62.352941%);fill-opacity:1;" d="M 19.097656 9.660156 L 19.097656 10.5625 C 19.097656 10.808594 19.300781 11.011719 19.546875 11.011719 C 19.796875 11.011719 20 10.808594 20 10.5625 L 20 9.660156 C 20 9.414062 19.796875 9.210938 19.546875 9.210938 C 19.300781 9.210938 19.097656 9.414062 19.097656 9.660156 Z M 17.300781 9.210938 C 17.050781 9.210938 16.847656 9.414062 16.847656 9.660156 L 16.847656 10.5625 C 16.847656 10.808594 17.050781 11.011719 17.300781 11.011719 C 17.546875 11.011719 17.75 10.808594 17.75 10.5625 L 17.75 9.660156 C 17.75 9.414062 17.546875 9.210938 17.300781 9.210938 Z M 15.050781 9.210938 C 14.800781 9.210938 14.601562 9.414062 14.601562 9.660156 L 14.601562 10.5625 C 14.601562 10.808594 14.800781 11.011719 15.050781 11.011719 C 15.300781 11.011719 15.5 10.808594 15.5 10.5625 L 15.5 9.660156 C 15.5 9.414062 15.300781 9.210938 15.050781 9.210938 Z M 26.296875 9.210938 C 26.046875 9.210938 25.847656 9.414062 25.847656 9.660156 L 25.847656 10.5625 C 25.847656 10.808594 26.046875 11.011719 26.296875 11.011719 C 26.546875 11.011719 26.746094 10.808594 26.746094 10.5625 L 26.746094 9.660156 C 26.746094 9.414062 26.546875 9.210938 26.296875 9.210938 Z M 28.546875 9.210938 C 28.296875 9.210938 28.097656 9.414062 28.097656 9.660156 L 28.097656 10.5625 C 28.097656 10.808594 28.296875 11.011719 28.546875 11.011719 C 28.792969 11.011719 28.996094 10.808594 28.996094 10.5625 L 28.996094 9.660156 C 28.996094 9.414062 28.792969 9.210938 28.546875 9.210938 Z M 24.046875 9.210938 C 23.796875 9.210938 23.597656 9.414062 23.597656 9.660156 L 23.597656 10.5625 C 23.597656 10.808594 23.796875 11.011719 24.046875 11.011719 C 24.296875 11.011719 24.496094 10.808594 24.496094 10.5625 L 24.496094 9.660156 C 24.496094 9.414062 24.296875 9.210938 24.046875 9.210938 Z M 21.796875 9.210938 C 21.550781 9.210938 21.347656 9.414062 21.347656 9.660156 L 21.347656 10.5625 C 21.347656 10.808594 21.550781 11.011719 21.796875 11.011719 C 22.046875 11.011719 22.246094 10.808594 22.246094 10.5625 L 22.246094 9.660156 C 22.246094 9.414062 22.046875 9.210938 21.796875 9.210938 Z M 21.796875 9.210938 "/>
<path style=" stroke:none;fill-rule:nonzero;fill:rgb(55.294118%,42.352941%,62.352941%);fill-opacity:1;" d="M 17.726562 12.15625 C 18.132812 12.335938 18.445312 12.59375 18.660156 12.925781 C 18.878906 13.261719 18.984375 13.660156 18.984375 14.121094 C 18.984375 14.578125 18.875 14.976562 18.660156 15.3125 C 18.445312 15.652344 18.132812 15.910156 17.726562 16.089844 C 17.320312 16.269531 16.84375 16.359375 16.296875 16.359375 L 14.875 16.359375 L 14.875 18.175781 L 13.699219 18.175781 L 13.699219 11.886719 L 16.296875 11.886719 C 16.84375 11.886719 17.320312 11.976562 17.726562 12.15625 Z M 17.40625 15.046875 C 17.671875 14.832031 17.804688 14.523438 17.804688 14.121094 C 17.804688 13.722656 17.671875 13.414062 17.40625 13.195312 C 17.140625 12.980469 16.753906 12.875 16.242188 12.875 L 14.871094 12.875 L 14.871094 15.371094 L 16.242188 15.371094 C 16.753906 15.371094 17.140625 15.265625 17.40625 15.046875 Z M 23.472656 13.832031 C 23.847656 14.167969 24.035156 14.679688 24.035156 15.363281 L 24.035156 18.175781 L 22.96875 18.175781 L 22.96875 17.589844 C 22.832031 17.800781 22.636719 17.960938 22.378906 18.074219 C 22.125 18.183594 21.816406 18.238281 21.457031 18.238281 C 21.09375 18.238281 20.78125 18.175781 20.507812 18.054688 C 20.238281 17.933594 20.027344 17.761719 19.882812 17.542969 C 19.734375 17.324219 19.660156 17.078125 19.660156 16.800781 C 19.660156 16.367188 19.820312 16.023438 20.144531 15.761719 C 20.464844 15.503906 20.972656 15.371094 21.664062 15.371094 L 22.90625 15.371094 L 22.90625 15.300781 C 22.90625 14.964844 22.808594 14.707031 22.605469 14.527344 C 22.40625 14.347656 22.105469 14.257812 21.707031 14.257812 C 21.4375 14.257812 21.171875 14.300781 20.910156 14.382812 C 20.648438 14.46875 20.429688 14.585938 20.246094 14.734375 L 19.804688 13.914062 C 20.058594 13.722656 20.363281 13.578125 20.714844 13.476562 C 21.070312 13.375 21.445312 13.324219 21.84375 13.324219 C 22.550781 13.324219 23.09375 13.492188 23.472656 13.832031 Z M 22.441406 17.226562 C 22.660156 17.097656 22.816406 16.914062 22.90625 16.675781 L 22.90625 16.117188 L 21.742188 16.117188 C 21.09375 16.117188 20.769531 16.332031 20.769531 16.757812 C 20.769531 16.960938 20.851562 17.121094 21.011719 17.242188 C 21.175781 17.359375 21.402344 17.421875 21.691406 17.421875 C 21.972656 17.421875 22.222656 17.355469 22.441406 17.226562 Z M 29.894531 13.375 L 27.640625 18.5625 C 27.429688 19.082031 27.175781 19.449219 26.875 19.664062 C 26.574219 19.875 26.210938 19.980469 25.785156 19.980469 C 25.542969 19.980469 25.304688 19.945312 25.070312 19.867188 C 24.835938 19.789062 24.644531 19.679688 24.492188 19.542969 L 24.945312 18.714844 C 25.054688 18.816406 25.179688 18.898438 25.328125 18.957031 C 25.476562 19.019531 25.625 19.046875 25.773438 19.046875 C 25.972656 19.046875 26.136719 18.996094 26.265625 18.894531 C 26.394531 18.792969 26.511719 18.621094 26.621094 18.382812 L 26.703125 18.195312 L 24.601562 13.378906 L 25.773438 13.378906 L 27.289062 16.925781 L 28.8125 13.378906 L 29.894531 13.378906 Z M 29.894531 13.375 "/>
<path style=" stroke:none;fill-rule:nonzero;fill:rgb(55.294118%,42.352941%,62.352941%);fill-opacity:1;" d="M 12.351562 14.585938 L 7.402344 14.585938 C 7.152344 14.585938 6.953125 14.785156 6.953125 15.035156 L 6.953125 16.832031 C 6.953125 17.082031 7.152344 17.28125 7.402344 17.28125 L 8.964844 17.28125 C 8.457031 17.84375 7.726562 18.183594 6.953125 18.183594 C 5.464844 18.183594 4.253906 16.972656 4.253906 15.484375 C 4.253906 13.996094 5.464844 12.785156 6.953125 12.785156 C 7.648438 12.785156 8.308594 13.046875 8.8125 13.527344 C 8.898438 13.609375 9.019531 13.660156 9.140625 13.648438 C 9.261719 13.644531 9.375 13.589844 9.457031 13.5 L 10.960938 11.828125 C 11.125 11.644531 11.113281 11.363281 10.933594 11.195312 C 9.847656 10.191406 8.433594 9.636719 6.953125 9.636719 C 3.726562 9.636719 1.105469 12.257812 1.105469 15.484375 C 1.105469 18.707031 3.726562 21.332031 6.953125 21.332031 C 10.175781 21.332031 12.800781 18.707031 12.800781 15.484375 L 12.800781 15.035156 C 12.800781 14.785156 12.601562 14.585938 12.351562 14.585938 Z M 6.953125 10.535156 C 8.058594 10.535156 9.117188 10.898438 9.980469 11.570312 L 9.074219 12.578125 C 8.460938 12.128906 7.722656 11.886719 6.953125 11.886719 C 5.875 11.886719 4.910156 12.363281 4.25 13.113281 L 3.144531 12.324219 C 4.054688 11.234375 5.421875 10.535156 6.953125 10.535156 Z M 2.636719 13.070312 L 3.746094 13.859375 C 3.496094 14.347656 3.355469 14.898438 3.355469 15.484375 C 3.355469 15.820312 3.402344 16.144531 3.492188 16.453125 L 2.339844 17.257812 C 2.125 16.707031 2.003906 16.109375 2.003906 15.484375 C 2.003906 14.605469 2.234375 13.785156 2.636719 13.070312 Z M 2.746094 18.074219 L 3.851562 17.300781 C 4.476562 18.363281 5.632812 19.082031 6.953125 19.082031 C 7.671875 19.082031 8.359375 18.859375 8.941406 18.476562 L 9.972656 19.394531 C 9.136719 20.042969 8.089844 20.433594 6.953125 20.433594 C 5.175781 20.433594 3.617188 19.484375 2.746094 18.074219 Z M 10.632812 18.777344 L 9.628906 17.882812 C 9.859375 17.632812 10.054688 17.34375 10.203125 17.027344 C 10.308594 16.804688 10.21875 16.539062 10 16.429688 C 9.9375 16.398438 9.867188 16.382812 9.796875 16.382812 L 7.851562 16.382812 L 7.851562 15.484375 L 11.902344 15.484375 C 11.902344 16.75 11.417969 17.902344 10.632812 18.777344 Z M 10.632812 18.777344 "/>
</g>
</svg>
